<svg width="134" height="157" viewBox="0 0 134 157" fill="none" xmlns="http://www.w3.org/2000/svg">
<path d="M134.065 196.369C60.4272 196.369 0.731689 136.675 0.731689 63.036C0.731689 -10.6013 60.4272 -70.2966 134.065 -70.2966C207.703 -70.2966 267.399 -10.6013 267.399 63.036C267.399 136.675 207.703 196.369 134.065 196.369ZM134.065 169.703C192.976 169.703 240.732 121.947 240.732 63.036C240.732 4.12631 192.976 -43.63 134.065 -43.63C75.1546 -43.63 27.3984 4.12631 27.3984 63.036C27.3984 121.947 75.1546 169.703 134.065 169.703ZM134.065 -2.95996L200.061 63.036L134.065 129.033L68.0685 63.036L134.065 -2.95996ZM134.065 34.7524L105.781 63.036L134.065 91.3214L162.349 63.036L134.065 34.7524Z" fill="url(#paint0_linear_1_155)" fill-opacity="0.6"/>
<defs>
<linearGradient id="paint0_linear_1_155" x1="91" y1="-49" x2="134" y2="245" gradientUnits="userSpaceOnUse">
<stop stop-color="#CDD1E0" stop-opacity="0.6"/>
<stop offset="1" stop-color="#CDD1E0" stop-opacity="0"/>
</linearGradient>
</defs>
</svg>
