<svg width="144" height="48" viewBox="0 0 144 48" fill="none" xmlns="http://www.w3.org/2000/svg">
<mask id="mask0_1_172" style="mask-type:alpha" maskUnits="userSpaceOnUse" x="0" y="0" width="144" height="48">
<path d="M24 0C29.4204 0 34.4207 1.7975 38.4385 4.82812C33.2523 9.58131 30 16.4106 30 24C30 31.5891 33.2525 38.4177 38.4385 43.1709C34.4206 46.2017 29.4206 48 24 48C10.7452 48 0 37.2548 0 24C0 10.7452 10.7452 0 24 0Z" fill="#D9D9D9"/>
<path d="M56 0C61.4204 0 66.4207 1.7975 70.4385 4.82812C65.2523 9.58131 62 16.4106 62 24C62 31.5891 65.2525 38.4177 70.4385 43.1709C66.4206 46.2017 61.4206 48 56 48C42.7452 48 32 37.2548 32 24C32 10.7452 42.7452 0 56 0Z" fill="#D9D9D9"/>
<path d="M88 0C93.4204 0 98.4207 1.7975 102.438 4.82812C97.2523 9.58131 94 16.4106 94 24C94 31.5891 97.2525 38.4177 102.438 43.1709C98.4206 46.2017 93.4206 48 88 48C74.7452 48 64 37.2548 64 24C64 10.7452 74.7452 0 88 0Z" fill="#D9D9D9"/>
<path d="M144 24C144 37.2548 133.255 48 120 48C106.745 48 96 37.2548 96 24C96 10.7452 106.745 0 120 0C133.255 0 144 10.7452 144 24Z" fill="#D9D9D9"/>
</mask>
<g mask="url(#mask0_1_172)">
<g clip-path="url(#clip0_1_172)">
<path d="M24 48C37.2548 48 48 37.2548 48 24C48 10.7452 37.2548 0 24 0C10.7452 0 0 10.7452 0 24C0 37.2548 10.7452 48 24 48Z" fill="#627EEA"/>
<path d="M23.8969 8.25L23.686 8.96629V29.7489L23.8969 29.9593L33.5438 24.2569L23.8969 8.25Z" fill="#C1CCF7"/>
<path d="M23.8971 8.24976L14.25 24.2567L23.8971 29.959V19.8717V8.24976Z" fill="white"/>
<path d="M23.8969 31.7856L23.7781 31.9305V39.3336L23.8969 39.6805L33.5497 26.0862L23.8969 31.7856Z" fill="#C1CCF7"/>
<path d="M23.8971 39.6805V31.7856L14.25 26.0862L23.8971 39.6805Z" fill="white"/>
<path d="M23.897 29.9591L33.5438 24.2568L23.897 19.8718V29.9591Z" fill="#8198EE"/>
<path d="M14.25 24.2568L23.8971 29.9591V19.8718L14.25 24.2568Z" fill="#C1CCF7"/>
</g>
<circle cx="56" cy="24" r="24" fill="#01CA6A"/>
<path d="M67.7003 35.3907L61.3249 28.9778H51.2575L44.8821 35.3907L47.8735 38.3998L54.2488 31.9868C54.7955 31.4371 55.516 31.1371 56.2912 31.1371C57.0663 31.1371 57.7869 31.4371 58.3335 31.9868L64.7088 38.3998L67.7003 35.3907Z" fill="white"/>
<path d="M62.3885 27.1292L71.0945 29.4735L72.1877 25.3599L63.4818 23.0156C62.7364 22.8156 62.1153 22.3358 61.7276 21.661C61.3401 20.9912 61.2407 20.2065 61.4395 19.4567L63.77 10.6995L59.6804 9.59985L57.3499 18.3571L62.3836 27.1242L62.3885 27.1292Z" fill="white"/>
<path d="M41.4931 29.4735L50.199 27.1292L50.204 27.1242L55.2377 18.3571L52.9072 9.59985L48.8176 10.6995L51.1481 19.4567C51.3469 20.2065 51.2475 20.9912 50.8599 21.661C50.4723 22.3358 49.8511 22.8156 49.1058 23.0156L40.3999 25.3599L41.4931 29.4735Z" fill="white"/>
<circle cx="88" cy="24" r="24" fill="#F3BA2F"/>
<path d="M90.7101 34.5118V37.876L87.9609 39.5999L85.2899 37.876V34.5118L87.9609 36.2356L90.7101 34.5118ZM76 22.876L78.671 24.5999V30.3691L83.2704 33.3024V36.6666L76 32.0929V22.876ZM99.9218 22.876V32.1068L92.5733 36.6805V33.3163L97.1726 30.383V24.6138L99.9218 22.876ZM92.5603 18.3024L95.3094 20.0262V23.3904L90.7101 26.3237V32.1763L88.0391 33.9001L85.3811 32.1763V26.3098L80.6124 23.3765V20.0123L83.3616 18.2885L87.9609 21.2217L92.5603 18.3024ZM80.6124 25.7954L83.2834 27.5192V30.8834L80.6124 29.1596V25.7954ZM95.3094 25.7954V29.1596L92.6384 30.8834V27.5192L95.3094 25.7954ZM78.671 15.3691L81.4202 17.0929L78.671 18.8167V22.1809L76 20.4571V17.0929L78.671 15.3691ZM97.2508 15.3691L100 17.0929V20.4571L97.2508 22.1809V18.8167L94.5798 17.0929L97.2508 15.3691ZM87.9609 15.3691L90.7101 17.0929L87.9609 18.8167L85.2899 17.0929L87.9609 15.3691ZM87.9609 9.59985L95.3094 14.1735L92.6384 15.8973L88.0391 12.9641L83.3485 15.8973L80.6775 14.1735L87.9609 9.59985Z" fill="white"/>
<circle cx="120" cy="24" r="24" fill="white"/>
<path d="M127.532 26.3712V22.4H131.503V26.3712H127.532Z" fill="black" fill-opacity="0.6"/>
<path d="M117.766 26.3712V22.4H121.737V26.3712H117.766Z" fill="black" fill-opacity="0.6"/>
<path d="M108 26.3712V22.4H111.971V26.3712H108Z" fill="black" fill-opacity="0.6"/>
</g>
<defs>
<clipPath id="clip0_1_172">
<rect width="48" height="48" fill="white"/>
</clipPath>
</defs>
</svg>
